<svg width="160" height="160" viewBox="0 0 160 160" fill="none" xmlns="http://www.w3.org/2000/svg">
<path d="M79.7 139.621C107.7 139.621 130.4 116.921 130.4 88.8208C130.4 60.7208 107.6 38.0208 79.7 38.0208C51.7 38.0208 29 60.7208 29 88.8208C29 116.921 51.7 139.621 79.7 139.621Z" fill="#F1F3FA" stroke="#D5DAE5" stroke-width="2" stroke-miterlimit="10"/>
<path d="M86.0612 107.239H74.794C72.1833 107.239 69.9849 109.647 69.9849 112.507V118.679C69.9849 125 74.6566 130.118 80.4276 130.118C86.1986 130.118 90.8704 125 90.8704 118.679V112.507C90.8704 109.497 88.6719 107.239 86.0612 107.239Z" fill="white" stroke="#D5DAE5" stroke-width="2" stroke-miterlimit="10"/>
<path fill-rule="evenodd" clip-rule="evenodd" d="M85.0612 48.1046C96.0859 50.6547 104.298 60.5282 104.298 72.3273V75.4866C104.298 102.135 124.359 119.58 124.359 119.58H34.3589C34.3589 119.58 54.5574 102.135 54.5574 75.4866V72.3273C54.5574 60.5282 62.7693 50.6547 73.794 48.1046V47.0525C73.794 43.8932 76.2673 41.4207 79.4276 41.4207C82.5879 41.4207 85.0612 43.8932 85.0612 47.0525V48.1046Z" fill="white"/>
<path d="M85.0612 48.1046H84.0612V48.8997L84.8358 49.0789L85.0612 48.1046ZM124.359 119.58V120.58H127.033L125.015 118.825L124.359 119.58ZM34.3589 119.58L33.7052 118.823L31.6712 120.58H34.3589V119.58ZM73.794 48.1046L74.0194 49.0789L74.794 48.8997V48.1046H73.794ZM104.298 72.3273H105.298C105.298 60.0524 96.7546 49.783 85.2865 47.1303L85.0612 48.1046L84.8358 49.0789C95.4171 51.5264 103.298 61.0039 103.298 72.3273H104.298ZM104.298 75.4866H105.298V72.3273H104.298H103.298V75.4866H104.298ZM124.359 119.58C125.015 118.825 125.015 118.826 125.015 118.826C125.015 118.826 125.015 118.826 125.015 118.826C125.015 118.825 125.015 118.825 125.014 118.824C125.012 118.823 125.009 118.82 125.005 118.817C124.997 118.809 124.984 118.798 124.967 118.783C124.932 118.751 124.878 118.704 124.808 118.639C124.668 118.511 124.459 118.317 124.191 118.059C123.656 117.542 122.887 116.772 121.962 115.762C120.11 113.742 117.638 110.772 115.166 106.98C110.218 99.391 105.298 88.5564 105.298 75.4866H104.298H103.298C103.298 89.0652 108.408 100.277 113.491 108.073C116.034 111.973 118.577 115.029 120.487 117.114C121.443 118.156 122.241 118.956 122.803 119.498C123.084 119.769 123.306 119.976 123.459 120.116C123.536 120.186 123.595 120.239 123.636 120.276C123.657 120.294 123.673 120.308 123.684 120.318C123.689 120.323 123.694 120.327 123.697 120.329C123.698 120.331 123.7 120.332 123.701 120.333C123.701 120.333 123.702 120.334 123.702 120.334C123.702 120.334 123.703 120.335 124.359 119.58ZM34.3589 119.58V120.58H124.359V119.58V118.58H34.3589V119.58ZM54.5574 75.4866H53.5574C53.5574 88.5546 48.6042 99.3883 43.6222 106.978C41.133 110.77 38.644 113.74 36.78 115.76C35.8484 116.769 35.0739 117.54 34.535 118.056C34.2656 118.314 34.0552 118.509 33.9136 118.637C33.8428 118.701 33.7893 118.749 33.7541 118.78C33.7365 118.796 33.7236 118.807 33.7154 118.814C33.7113 118.818 33.7084 118.82 33.7067 118.822C33.7058 118.823 33.7053 118.823 33.7051 118.823C33.7049 118.823 33.705 118.823 33.7049 118.823C33.705 118.823 33.7052 118.823 34.3589 119.58C35.0125 120.337 35.0129 120.337 35.0133 120.336C35.0136 120.336 35.0141 120.335 35.0146 120.335C35.0156 120.334 35.0168 120.333 35.0184 120.332C35.0216 120.329 35.0261 120.325 35.0317 120.32C35.0429 120.31 35.0589 120.296 35.0795 120.278C35.1208 120.241 35.1807 120.188 35.2578 120.118C35.4121 119.978 35.6356 119.772 35.9185 119.501C36.4843 118.959 37.2878 118.158 38.2498 117.116C40.173 115.032 42.7336 111.976 45.2941 108.075C50.4113 100.28 55.5574 89.067 55.5574 75.4866H54.5574ZM54.5574 72.3273H53.5574V75.4866H54.5574H55.5574V72.3273H54.5574ZM73.794 48.1046L73.5686 47.1303C62.1006 49.783 53.5574 60.0524 53.5574 72.3273H54.5574H55.5574C55.5574 61.0039 63.4381 51.5264 74.0194 49.0789L73.794 48.1046ZM73.794 48.1046H74.794V47.0525H73.794H72.794V48.1046H73.794ZM73.794 47.0525H74.794C74.794 44.4458 76.8193 42.4207 79.4276 42.4207V41.4207V40.4207C75.7153 40.4207 72.794 43.3406 72.794 47.0525H73.794ZM79.4276 41.4207V42.4207C82.0359 42.4207 84.0612 44.4458 84.0612 47.0525H85.0612H86.0612C86.0612 43.3406 83.1399 40.4207 79.4276 40.4207V41.4207ZM85.0612 47.0525H84.0612V48.1046H85.0612H86.0612V47.0525H85.0612Z" fill="#D5DAE5"/>
<path d="M68.9849 86.3384C65.5498 86.3384 62.6643 84.1406 61.5651 80.9812C61.2903 80.2944 61.7025 79.6076 62.3895 79.3329C63.0765 79.0582 63.7636 79.4702 64.0384 80.1571C64.7254 82.2175 66.7865 83.7285 68.9849 83.7285C71.1834 83.7285 73.2445 82.3549 73.9315 80.1571C74.2063 79.4702 74.8933 79.0582 75.5803 79.3329C76.2674 79.6076 76.6796 80.2944 76.4048 80.9812C75.3055 84.2779 72.42 86.3384 68.9849 86.3384Z" fill="#AAB2C5"/>
<path d="M89.733 86.3384C86.2979 86.3384 83.4124 84.1406 82.3131 80.9812C82.0383 80.2944 82.4505 79.6076 83.1376 79.3329C83.8246 79.0582 84.5116 79.4702 84.7864 80.1571C85.4734 82.2175 87.5345 83.7285 89.733 83.7285C91.9314 83.7285 93.9925 82.3549 94.6795 80.1571C94.9544 79.4702 95.6414 79.0582 96.3284 79.3329C97.0154 79.6076 97.4276 80.2944 97.1528 80.9812C96.0536 84.2779 93.1681 86.3384 89.733 86.3384Z" fill="#AAB2C5"/>
<path d="M79.4276 103.157C81.173 103.157 82.5879 101.743 82.5879 99.9977C82.5879 98.2529 81.173 96.8384 79.4276 96.8384C77.6822 96.8384 76.2673 98.2529 76.2673 99.9977C76.2673 101.743 77.6822 103.157 79.4276 103.157Z" fill="#AAB2C5"/>
<path d="M96.3618 25.6497V21H114.332V25.6497L102.07 40.4441H114.543V45.0937H95.7275V40.4441L107.989 25.6497H96.3618Z" fill="#AAB2C5"/>
<path d="M111.161 60.5221V57.5632H122.788V60.5221L114.966 70.0328H123V72.9917H110.738V70.0328L118.56 60.5221H111.161Z" fill="#AAB2C5"/>
</svg>
