<svg width="160" height="160" viewBox="0 0 160 160" fill="none" xmlns="http://www.w3.org/2000/svg">
<path d="M77.2 139.991C105.2 139.991 127.9 117.291 127.9 89.1906C127.9 61.0906 105.2 38.3906 77.2 38.3906C49.2 38.3906 26.5 61.0906 26.5 89.1906C26.5 117.291 49.2 139.991 77.2 139.991Z" fill="#F1F3FA" stroke="#D5DAE5" stroke-width="2" stroke-miterlimit="10"/>
<path d="M39.9 56.2905H112C114.9 56.2905 117.1 58.4905 117.1 61.3905V107.091C117.1 109.991 114.9 112.191 112 112.191H39.9C37 112.191 34.8 109.991 34.8 107.091V61.3905C34.8 58.4905 37.2 56.2905 39.9 56.2905Z" fill="#F1F3FA" stroke="#D5DAE5" stroke-width="2" stroke-miterlimit="10"/>
<path d="M112.2 72.9907H88.8C86.5 72.9907 84.3 73.7907 82.6 75.1907L76.5 80.1907C74.8 81.5907 72.6 82.3907 70.3 82.3907H43.9C41.2 82.3907 39 84.5907 39 87.2907C39 87.4907 39 87.7907 39.1 87.9907L44 113.791C44.4 116.191 46.4 117.991 48.9 117.991H105.4C107.8 117.991 109.9 116.291 110.3 113.891L117.1 78.5907C117.6 75.8907 115.8 73.4907 113.1 72.9907C112.7 72.9907 112.4 72.9907 112.2 72.9907Z" fill="white"/>
<path d="M122.7 66.0907H92.2999C89.2999 66.0907 86.4999 67.0907 84.1999 68.9907L76.1999 75.4907C73.9999 77.2907 71.0999 78.3907 68.0999 78.3907H33.6999C30.1999 78.3907 27.3999 81.2907 27.3999 84.6907C27.3999 84.9907 27.3999 85.2907 27.4999 85.5907L33.7999 119.291C34.2999 122.491 36.9999 124.791 40.0999 124.791H113.7C116.9 124.791 119.5 122.591 120 119.391L128.9 73.2907C129.5 69.7907 127.2 66.6907 123.7 65.9907C123.4 66.0907 123 66.0907 122.7 66.0907Z" fill="white" stroke="#D5DAE5" stroke-width="2" stroke-miterlimit="10"/>
<path d="M63.9001 100.991C65.7001 100.991 67.2001 99.4906 67.2001 97.6906C67.2001 95.8906 65.7001 94.3906 63.9001 94.3906C62.1001 94.3906 60.6001 95.8906 60.6001 97.6906C60.6001 99.4906 62.1001 100.991 63.9001 100.991Z" fill="#AAB2C5"/>
<path d="M89.6 100.891C91.4 100.891 92.9001 99.3905 92.9001 97.5905C92.9001 95.7905 91.4 94.2905 89.6 94.2905C87.8 94.2905 86.3 95.7905 86.3 97.5905C86.3 99.4905 87.8 100.891 89.6 100.891Z" fill="#AAB2C5"/>
<path d="M127.6 122.49C127.2 124.19 126.6 125.99 125.9 127.49C124 131.19 121 134.09 117.3 135.99C113.5 137.89 109 138.69 104.5 137.69C93.9001 135.49 87.1001 125.09 89.3001 114.49C91.5001 103.89 101.8 96.9903 112.4 99.2903C116.2 100.09 119.5 101.99 122.3 104.59C127 109.29 129 116.09 127.6 122.49Z" fill="#D5DAE5" stroke="#AAB2C5" stroke-width="2" stroke-miterlimit="10"/>
<path d="M114.7 116.79H110.2V112.29C110.2 111.39 109.5 110.59 108.5 110.59C107.6 110.59 106.8 111.29 106.8 112.29V116.79H102.3C101.4 116.79 100.6 117.49 100.6 118.49C100.6 119.49 101.3 120.19 102.3 120.19H106.8V124.69C106.8 125.59 107.5 126.39 108.5 126.39C109.4 126.39 110.2 125.69 110.2 124.69V120.19H114.7C115.6 120.19 116.4 119.49 116.4 118.49C116.4 117.49 115.6 116.79 114.7 116.79Z" fill="white" stroke="#AAB2C5" stroke-width="2" stroke-miterlimit="10"/>
<path d="M72.7 77.2905C69.1 70.2905 68.3 61.8905 70.7 54.2905C73 46.6905 78.5 40.1905 85.3 36.4905C87.4 35.3905 89.8 34.4905 92.2 34.3905C94.6 34.2905 97.2 35.0905 98.8 37.0905C100.4 38.8905 100.7 41.8905 99.4 43.8905C98 45.7905 95.2 46.5905 92.9 45.9905C89.2 45.2905 86.2 42.3905 85.3 38.8905C84.4 35.3905 85.6 31.2905 88.4 28.9905C90.2 27.3905 92.7 26.4905 95 25.7905C106.2 22.4905 118.4 22.0905 129.8 24.5905" stroke="#D5DAE5" stroke-width="2" stroke-miterlimit="10" stroke-dasharray="4 4"/>
<path d="M79.9 104.491H73.7V105.991H79.9V104.491Z" fill="#AAB2C5"/>
<path d="M135.8 21.9905C135.7 23.4905 135.6 24.8905 134.5 25.1905C133.4 25.4905 132.9 24.4905 132.2 23.0905C131.5 21.7905 131.9 20.3905 133.1 20.0905C134.2 19.7905 136 20.1905 135.8 21.9905Z" fill="#F1F3FA" stroke="#D5DAE5" stroke-width="2" stroke-miterlimit="10"/>
<path d="M134.6 29.1905C134.9 27.3905 135.2 26.3905 134.2 25.8905C133.1 25.3905 132.4 26.2905 131.2 27.4905C130.2 28.5905 130.8 30.1905 131.8 30.6905C133 31.2905 134.3 30.6905 134.6 29.1905Z" fill="#F1F3FA" stroke="#D5DAE5" stroke-width="2" stroke-miterlimit="10"/>
<path d="M136 25.8906C135.9 26.5906 135.4 27.0906 134.7 27.1906C134.4 27.1906 134.1 27.1906 133.7 27.1906C132.3 26.9906 131.2 26.0906 131.3 25.1906C131.4 24.2906 132.7 23.7906 134.3 23.9906C134.6 23.9906 134.9 24.0906 135.1 24.1906C135.7 24.3906 136.1 25.0906 136 25.8906C136 25.8906 136 25.7906 136 25.8906Z" fill="#F1F3FA"/>
<path d="M136 25.8906C135.9 26.5906 135.4 27.0906 134.7 27.1906C134.4 27.1906 134.1 27.1906 133.7 27.1906C132.3 26.9906 131.2 26.0906 131.3 25.1906C131.4 24.2906 132.7 23.7906 134.3 23.9906C134.6 23.9906 134.9 24.0906 135.1 24.1906C135.7 24.3906 136.1 25.0906 136 25.8906ZM136 25.8906C136 25.7906 136 25.8906 136 25.8906Z" stroke="#D5DAE5" stroke-width="2" stroke-miterlimit="10"/>
<path d="M24.3999 53.9905C24.3999 52.2905 24.3999 50.5905 25.5999 50.0905C26.8999 49.5905 27.5999 50.7905 28.5999 52.4905C29.4999 53.9905 29.0999 55.5905 27.7999 56.0905C26.6999 56.5905 24.3999 56.2905 24.3999 53.9905Z" fill="#F1F3FA" stroke="#D5DAE5" stroke-width="2" stroke-miterlimit="10"/>
<path d="M25.0999 45.5906C24.8999 47.6906 24.5999 48.8906 25.8999 49.3906C27.1999 49.8906 27.8999 48.7906 29.1999 47.1906C30.1999 45.7906 29.4999 43.9906 28.1999 43.4906C26.8999 42.9906 25.2999 43.8906 25.0999 45.5906Z" fill="#F1F3FA" stroke="#D5DAE5" stroke-width="2" stroke-miterlimit="10"/>
<path d="M24 49.5906C24 48.7906 24.6 48.1906 25.3 48.0906C25.6 47.9906 26 47.9906 26.4 48.0906C28 48.1906 29.4 49.0906 29.3 50.0906C29.2 51.0906 27.9 51.7906 26.2 51.5906C25.9 51.5906 25.6 51.4906 25.3 51.3906C24.5 51.2906 24 50.4906 24 49.5906Z" fill="#F1F3FA" stroke="#D5DAE5" stroke-width="2" stroke-miterlimit="10"/>
<path d="M30.8 49.8906C41.3 49.8906 60.7 55.9906 61 78.3906" stroke="#D5DAE5" stroke-width="2" stroke-miterlimit="10" stroke-dasharray="4 4"/>
</svg>